<svg width="64" height="64" viewBox="0 0 64 64" fill="none" xmlns="http://www.w3.org/2000/svg">
<g clip-path="url(#clip0_9_124)">
<path d="M49.336 -0.0624699C49.447 -0.0608687 49.5581 -0.0592674 49.6726 -0.0576176C51.2103 -0.0105163 52.3879 0.473102 53.625 1.37503C53.7043 1.42982 53.7836 1.4846 53.8653 1.54105C55.5843 2.85 56.1855 5.06024 56.7486 7.0386C56.8138 7.26555 56.8138 7.26555 56.8804 7.49707C56.9942 7.89383 57.1072 8.29079 57.2201 8.68783C57.3126 9.01199 57.4063 9.33577 57.5001 9.65957C57.6125 10.0487 57.7234 10.4382 57.8345 10.8277C57.8763 10.9718 57.9181 11.116 57.9611 11.2645C57.9992 11.3993 58.0372 11.5342 58.0764 11.6731C58.11 11.7909 58.1436 11.9087 58.1783 12.03C58.2939 12.5859 58.3081 12.993 58.0782 13.5157C57.3187 14.3475 55.96 14.5493 54.9073 14.8467C54.6685 14.9151 54.4298 14.9834 54.1911 15.0518C53.9354 15.1249 53.6796 15.1976 53.4238 15.2703C52.8786 15.4252 52.3336 15.5811 51.7888 15.7371C51.5991 15.7914 51.4095 15.8457 51.2199 15.9C51.1247 15.9273 51.0295 15.9545 50.9314 15.9826C50.6374 16.0668 50.3433 16.1508 50.0492 16.2349C47.9721 16.8286 45.8971 17.4293 43.8222 18.0307C43.3203 18.1761 42.8184 18.3214 42.3165 18.4668C39.4279 19.3033 36.5396 20.1406 33.6513 20.978C31.6275 21.5647 29.6037 22.1511 27.5796 22.7368C27.4191 22.7833 27.4191 22.7833 27.2554 22.8307C26.2106 23.1331 25.1658 23.4354 24.1209 23.7377C23.7357 23.8491 23.3504 23.9606 22.9652 24.0721C22.7899 24.1229 22.6145 24.1736 22.4391 24.2243C21.3116 24.5504 20.1846 24.8783 19.0578 25.207C18.9196 25.2474 18.7813 25.2877 18.6389 25.3292C18.3009 25.4278 17.963 25.5264 17.625 25.625C17.7129 25.6252 17.8007 25.6253 17.8912 25.6254C23.0946 25.6327 28.298 25.6419 33.5014 25.6537C34.1259 25.6551 34.7504 25.6565 35.3748 25.6578C35.4991 25.6581 35.6235 25.6584 35.7515 25.6587C37.7658 25.6631 39.7801 25.6662 41.7945 25.6688C43.8605 25.6715 45.9266 25.6757 47.9927 25.6811C49.2681 25.6844 50.5435 25.6866 51.8189 25.6874C52.6929 25.6881 53.5669 25.6901 54.4409 25.6932C54.9455 25.695 55.4501 25.6961 55.9548 25.6957C56.4166 25.6952 56.8783 25.6965 57.3401 25.6992C57.5867 25.7002 57.8333 25.6993 58.0799 25.6984C58.2261 25.6995 58.3724 25.7007 58.523 25.7019C58.6493 25.7022 58.7755 25.7024 58.9055 25.7027C59.4268 25.7743 59.7424 25.9833 60.0986 26.364C60.2717 26.6624 60.2971 26.8331 60.2976 27.1759C60.2986 27.2861 60.2997 27.3962 60.3008 27.5097C60.3 27.6302 60.2993 27.7507 60.2985 27.8748C60.2995 28.0675 60.2995 28.0675 60.3005 28.264C60.3023 28.6957 60.3014 29.1274 60.3005 29.5591C60.3012 29.8681 60.3021 30.1771 60.3031 30.4861C60.3051 31.2394 60.3054 31.9927 60.3047 32.746C60.3042 33.3588 60.3044 33.9716 60.3051 34.5844C60.3052 34.6717 60.3053 34.7589 60.3054 34.8488C60.3056 35.026 60.3057 35.2033 60.3059 35.3805C60.3077 37.0435 60.307 38.7066 60.3055 40.3696C60.3043 41.8885 60.3059 43.4074 60.3089 44.9263C60.312 46.4873 60.3132 48.0483 60.3123 49.6093C60.3119 50.4851 60.3122 51.3609 60.3144 52.2367C60.3164 53.0613 60.3158 53.8858 60.3134 54.7104C60.313 55.0123 60.3134 55.3142 60.3147 55.6161C60.3247 58.1118 60.0815 60.0601 58.3057 61.9473C57.0686 63.1726 55.689 64.0093 53.9087 64.0193C53.7657 64.0203 53.6227 64.0214 53.4754 64.0225C53.3196 64.0231 53.1639 64.0236 53.0034 64.0241C52.8385 64.0252 52.6736 64.0262 52.5038 64.0272C51.9582 64.0305 51.4127 64.0324 50.8672 64.0342C50.6791 64.0349 50.4911 64.0356 50.303 64.0362C49.5208 64.0389 48.7387 64.0413 47.9565 64.0427C46.8365 64.0447 45.7166 64.0489 44.5967 64.056C43.8084 64.0608 43.0202 64.0633 42.232 64.0639C41.7614 64.0644 41.2909 64.0659 40.8203 64.0699C40.2957 64.0744 39.7712 64.0739 39.2466 64.073C39.013 64.076 39.013 64.076 38.7747 64.0792C37.6039 64.0707 37.6039 64.0707 37.219 63.6986C36.8928 63.2166 36.8291 62.9609 36.875 62.375C37.0835 61.9383 37.2175 61.7717 37.625 61.5C37.9523 61.474 38.2666 61.4624 38.5941 61.4622C38.693 61.4611 38.7919 61.46 38.8938 61.459C39.2236 61.4557 39.5535 61.4542 39.8833 61.4527C40.1168 61.4506 40.3503 61.4485 40.5839 61.4462C41.2039 61.4405 41.8239 61.4362 42.4439 61.4322C44.5043 61.4186 46.5647 61.3991 48.625 61.375C48.748 61.3736 48.871 61.3723 48.9978 61.3708C49.7288 61.3624 50.4597 61.3519 51.1906 61.3385C51.4168 61.3346 51.643 61.3313 51.8693 61.3286C53.5329 61.3083 55.0399 61.2322 56.336 60.0591C59.2472 56.9659 57.6179 40.8645 57.625 40.125C41.4963 40.125 25.3675 40.125 8.75003 40.125C7.79136 49.4389 7.79136 49.4389 10.125 60.125C11.2176 61.0127 12.3017 61.2804 13.682 61.3004C13.7813 61.3027 13.8806 61.305 13.9829 61.3074C14.3094 61.3147 14.6359 61.3202 14.9624 61.3257C15.1952 61.3304 15.4281 61.3352 15.6609 61.34C17.3553 61.3732 19.0499 61.387 20.7447 61.397C20.9825 61.3985 21.2204 61.4 21.4582 61.4016C21.6961 61.4031 21.9339 61.4046 22.1717 61.406C22.2889 61.4068 22.4062 61.4075 22.527 61.4083C23.133 61.4119 23.739 61.4146 24.345 61.4158C24.9476 61.417 25.5501 61.4207 26.1527 61.4259C26.3786 61.4275 26.6045 61.4281 26.8304 61.4278C27.1417 61.4275 27.4528 61.4303 27.7641 61.4338C27.8553 61.433 27.9465 61.4321 28.0404 61.4313C28.6431 61.4424 28.9517 61.5721 29.375 62C29.5751 62.4002 29.5624 62.8158 29.5 63.25C29.2758 63.6013 29.1227 63.8137 28.75 64C28.5304 64.0127 28.3103 64.0175 28.0903 64.0184C27.8803 64.0198 27.8803 64.0198 27.6661 64.0211C27.4346 64.0216 27.4346 64.0216 27.1984 64.0222C26.9553 64.0234 26.9553 64.0234 26.7074 64.0246C26.1687 64.0273 25.63 64.0286 25.0913 64.0298C24.9056 64.0303 24.7198 64.0308 24.534 64.0314C23.6602 64.0337 22.7863 64.0355 21.9124 64.0366C20.9064 64.0378 19.9004 64.0411 18.8944 64.0461C18.1155 64.0499 17.3366 64.0517 16.5577 64.0522C16.0932 64.0525 15.6288 64.0536 15.1644 64.0567C14.6444 64.0602 14.1246 64.0596 13.6046 64.0588C13.4531 64.0604 13.3015 64.062 13.1453 64.0636C11.1839 64.0518 9.56538 63.3534 8.13724 62.0235C6.02798 59.8239 6.08566 57.1107 6.11889 54.2638C6.12122 53.9787 6.12339 53.6936 6.12543 53.4085C6.12991 52.7967 6.13498 52.185 6.1404 51.5732C6.1486 50.5975 6.15275 49.6219 6.15591 48.6462C6.15632 48.5221 6.15632 48.5221 6.15674 48.3955C6.15841 47.8869 6.16001 47.3783 6.16158 46.8697C6.16401 46.0858 6.16655 45.3019 6.16949 44.5179C6.16982 44.4308 6.17014 44.3437 6.17048 44.254C6.17589 42.8578 6.18809 41.4618 6.20272 40.0656C6.2177 38.6178 6.22408 37.1702 6.22343 35.7223C6.22343 34.9152 6.2269 34.1085 6.24021 33.3015C6.30272 29.3473 5.8846 25.8751 4.61945 22.1422C3.86835 19.9 3.33071 17.5085 4.3052 15.2393C4.6146 14.6608 4.96291 14.1349 5.37503 13.625C5.47187 13.5014 5.56871 13.3779 5.66848 13.2505C5.98628 12.8726 6.33757 12.59 6.74222 12.3047C6.86709 12.2143 6.99197 12.1239 7.12063 12.0308C8.74289 11.0506 10.8359 10.6834 12.64 10.1609C12.992 10.0589 13.3438 9.95641 13.6957 9.85396C14.9635 9.48483 16.2317 9.11731 17.5 8.75003C17.7082 8.68974 17.9163 8.62946 18.1245 8.56917C20.6308 7.84326 23.1376 7.1187 25.6445 6.39459C27.6696 5.80964 29.6943 5.22327 31.7187 4.6362C32.2386 4.48545 32.7584 4.33479 33.2783 4.18414C34.8821 3.71936 36.4858 3.25428 38.0892 2.78815C38.962 2.53445 39.8348 2.28101 40.7076 2.02773C41.334 1.84594 41.9603 1.66384 42.5865 1.4815C42.9759 1.36821 43.3653 1.25524 43.7548 1.14235C43.9338 1.0904 44.1127 1.03833 44.2916 0.986118C47.9907 -0.0931354 47.9907 -0.0931353 49.336 -0.0624699ZM47.375 2.92191C47.2566 2.95391 47.1381 2.98592 47.0161 3.01889C45.1692 3.52455 43.3348 4.07732 41.5 4.62503C41.9734 5.19016 42.4611 5.73087 42.9844 6.25003C43.0442 6.31029 43.104 6.37056 43.1656 6.43265C43.5095 6.77569 43.8633 7.10106 44.2315 7.418C44.882 7.98165 45.4778 8.59675 46.0806 9.21048C46.4987 9.63319 46.9184 10.044 47.3706 10.4302C47.7467 10.7532 48.0925 11.0933 48.4341 11.4527C48.5285 11.5514 48.6228 11.6501 48.72 11.7517C48.9138 11.9558 49.1062 12.1612 49.2971 12.368C49.3913 12.4655 49.4855 12.5631 49.5825 12.6636C49.6659 12.7523 49.7492 12.841 49.835 12.9324C50.2448 13.2046 50.5149 13.1707 51 13.125C51.3092 13.058 51.616 12.9797 51.9199 12.8921C52.0038 12.868 52.0877 12.844 52.1741 12.8191C52.3499 12.7683 52.5256 12.7169 52.701 12.665C52.9693 12.5858 53.2382 12.5092 53.5074 12.4329C53.6788 12.383 53.8502 12.333 54.0215 12.2827C54.2537 12.215 54.2537 12.215 54.4906 12.1459C54.8599 12.0058 54.9927 11.9058 55.25 11.625C55.0022 10.7414 54.7508 9.85882 54.497 8.97687C54.4112 8.67729 54.3263 8.37749 54.2421 8.07745C54.1204 7.64395 53.9958 7.21136 53.8706 6.77884C53.8159 6.58032 53.8159 6.58032 53.76 6.37778C53.4247 5.23661 52.9033 4.02342 51.8594 3.36722C51.7585 3.30131 51.6577 3.23541 51.5537 3.16751C50.2122 2.42772 48.8062 2.52012 47.375 2.92191ZM36.9859 5.81302C36.7888 5.87172 36.7889 5.87172 36.5879 5.93161C36.1693 6.05743 35.7528 6.18888 35.336 6.32034C35.0531 6.40574 34.7702 6.49078 34.4871 6.57547C33.9709 6.73201 33.4547 6.88865 32.9403 7.05109C32.8369 7.0835 32.7335 7.11592 32.627 7.14932C32.3523 7.23992 32.3523 7.23992 32.125 7.50003C32.4995 7.87817 32.8747 8.25557 33.25 8.63284C33.3549 8.73879 33.4598 8.84473 33.5679 8.95389C34.114 9.50212 34.6678 10.0286 35.2549 10.5325C35.8066 11.0222 36.3139 11.5594 36.8306 12.0855C37.2496 12.5091 37.6705 12.9213 38.1226 13.3096C38.7908 13.8842 39.3966 14.52 40.0105 15.1514C40.1007 15.2429 40.1908 15.3344 40.2837 15.4287C40.3644 15.5115 40.4451 15.5943 40.5283 15.6797C40.7527 15.903 40.7527 15.903 41.125 16C41.4133 15.9514 41.4133 15.9514 41.7299 15.8536C41.8525 15.8185 41.9751 15.7835 42.1014 15.7474C42.2334 15.7085 42.3654 15.6695 42.5015 15.6294C42.6369 15.5904 42.7723 15.5514 42.9119 15.5112C43.3452 15.3861 43.7781 15.2595 44.211 15.1328C44.5043 15.0479 44.7977 14.963 45.0911 14.8782C45.8111 14.6699 46.5307 14.4604 47.25 14.25C47.1439 13.6919 46.8275 13.4057 46.4297 13.0235C46.3671 12.9615 46.3045 12.8996 46.24 12.8357C45.8844 12.4873 45.5183 12.1554 45.1411 11.8306C44.4917 11.2672 43.8965 10.6526 43.2945 10.0396C42.8761 9.61664 42.4559 9.205 42.0044 8.81741C41.3226 8.23098 40.7046 7.58118 40.0779 6.93704C39.9837 6.84149 39.8895 6.74594 39.7925 6.64749C39.7092 6.56207 39.6259 6.47665 39.54 6.38864C39.4443 6.30165 39.3486 6.21466 39.25 6.12503C39.161 6.03466 39.161 6.03466 39.0703 5.94246C38.3736 5.32291 37.8152 5.54488 36.9859 5.81302ZM27.1963 8.7305C27.0725 8.76657 26.9487 8.80264 26.8212 8.8398C26.4274 8.95477 26.034 9.07113 25.6407 9.18753C25.3731 9.26591 25.1055 9.3442 24.8379 9.42239C24.1833 9.61389 23.529 9.80652 22.875 10C22.8354 10.3798 22.8354 10.3798 23.0772 10.6217C23.1703 10.7137 23.2634 10.8057 23.3594 10.9004C23.462 11.0024 23.5647 11.1044 23.6704 11.2095C23.7792 11.3157 23.888 11.4219 24 11.5313C24.1574 11.6877 24.1574 11.6877 24.3179 11.8472C24.8647 12.3872 25.4227 12.9054 26.0049 13.4066C26.5559 13.8975 27.0638 14.4343 27.5806 14.9605C28.0015 15.386 28.4241 15.7988 28.8794 16.1875C29.2334 16.4913 29.555 16.8089 29.8706 17.1524C29.9526 17.2404 30.0345 17.3283 30.1189 17.419C30.2862 17.5999 30.4512 17.7829 30.614 17.9678C30.7372 18.0978 30.7372 18.0978 30.8628 18.2305C30.9701 18.3488 30.9701 18.3488 31.0796 18.4695C31.8762 18.8888 33.0099 18.3771 33.813 18.1324C33.9937 18.0785 33.9937 18.0785 34.1781 18.0236C34.5591 17.9099 34.9397 17.7948 35.3203 17.6797C35.5802 17.6019 35.84 17.5242 36.0999 17.4466C36.7336 17.2571 37.3669 17.0665 38 16.875C37.8799 16.7343 37.7596 16.5936 37.6394 16.4529C37.5389 16.3354 37.5389 16.3354 37.4365 16.2155C36.9694 15.6758 36.4555 15.1895 35.9131 14.7266C35.257 14.1553 34.6537 13.5349 34.0445 12.9146C33.6248 12.4903 33.2031 12.0773 32.7505 11.688C32.1983 11.2129 31.6899 10.6992 31.1797 10.1797C30.8312 9.82493 30.4805 9.4729 30.125 9.12503C30.0477 9.04819 29.9704 8.97135 29.8907 8.89218C29.8174 8.82352 29.744 8.75486 29.6685 8.68411C29.574 8.59397 29.574 8.59397 29.4776 8.50201C28.784 8.11496 27.8986 8.52104 27.1963 8.7305ZM18.9236 11.1607C18.801 11.1957 18.6783 11.2307 18.552 11.2668C18.4187 11.3051 18.2853 11.3434 18.148 11.3828C18.0122 11.4217 17.8764 11.4605 17.7365 11.5005C17.3009 11.6252 16.8653 11.7501 16.4297 11.875C16.1352 11.9594 15.8407 12.0437 15.5462 12.128C14.8224 12.3351 14.0987 12.5425 13.375 12.75C13.5812 13.1873 13.8168 13.4725 14.1612 13.815C14.2686 13.9222 14.3761 14.0294 14.4868 14.1399C14.5995 14.251 14.7121 14.3621 14.8282 14.4766C14.9379 14.5862 15.0476 14.6959 15.1607 14.8089C15.7185 15.363 16.2854 15.8962 16.8816 16.4086C17.4324 16.8983 17.9394 17.4349 18.4556 17.9605C18.8588 18.3681 19.2616 18.7662 19.6992 19.1367C20.5563 19.8705 21.3328 20.6978 22.125 21.5C22.9706 21.2561 23.8159 21.0113 24.661 20.7661C24.9486 20.6827 25.2362 20.5996 25.5238 20.5166C25.9373 20.3973 26.3505 20.2773 26.7637 20.1573C26.8924 20.1203 27.021 20.0833 27.1536 20.0452C27.2737 20.0102 27.3938 19.9751 27.5175 19.9391C27.623 19.9085 27.7284 19.878 27.8371 19.8465C28.116 19.7531 28.3659 19.6384 28.625 19.5C28.4171 19.2887 28.2087 19.0778 28 18.8672C27.9428 18.809 27.8856 18.7507 27.8267 18.6907C27.4873 18.349 27.1388 18.0254 26.7735 17.7115C26.0925 17.1219 25.47 16.4759 24.8389 15.834C24.3253 15.3152 23.802 14.8218 23.2484 14.3462C22.7952 13.9427 22.3772 13.504 21.9532 13.0703C21.2194 12.3277 20.4908 11.5912 19.625 11C19.3855 11 19.1519 11.0953 18.9236 11.1607ZM7.65481 15.0523C6.59785 16.2716 6.49179 17.4652 6.58574 19.0154C6.70948 20.148 7.09029 21.2378 7.42972 22.3203C7.50726 22.5767 7.58449 22.8331 7.6614 23.0896C7.8916 23.8538 8.12263 24.6178 8.37503 25.375C9.4726 25.1872 10.532 24.8759 11.5987 24.5625C11.7878 24.5074 11.977 24.4523 12.1662 24.3972C12.6612 24.2531 13.156 24.1084 13.6508 23.9635C14.4433 23.7316 15.236 23.5005 16.0288 23.2695C16.3038 23.1892 16.5788 23.1087 16.8538 23.0281C17.6492 22.7955 18.4435 22.5664 19.25 22.375C18.7443 21.7634 18.2123 21.2131 17.625 20.6797C16.8942 20.0079 16.184 19.3201 15.49 18.6104C15.1366 18.2514 14.7761 17.91 14.3941 17.5816C13.7142 16.9941 13.0935 16.3493 12.4639 15.709C11.936 15.1757 11.3992 14.6639 10.8286 14.1763C10.6718 14.0405 10.5217 13.8967 10.375 13.75C9.30076 13.75 8.39818 14.3184 7.65481 15.0523ZM8.75003 28.375C8.75003 31.3863 8.75003 34.3975 8.75003 37.5C9.78128 37.5 10.8125 37.5 11.875 37.5C12.3468 37.5258 12.8186 37.5516 13.3047 37.5782C14.0706 37.5563 14.0706 37.5563 14.7051 37.1966C15.107 36.6755 15.344 36.0755 15.595 35.4716C15.8739 34.8481 16.2348 34.2724 16.586 33.6875C16.7346 33.4345 16.8828 33.1812 17.0308 32.9278C17.1067 32.7981 17.1825 32.6685 17.2607 32.5349C17.6443 31.878 18.0255 31.2196 18.4059 30.5608C18.5289 30.3478 18.6521 30.135 18.7753 29.9221C18.8875 29.7277 18.8875 29.7277 19.002 29.5293C19.0681 29.4149 19.1342 29.3004 19.2023 29.1825C19.3511 28.9176 19.4892 28.6468 19.625 28.375C16.0363 28.375 12.4475 28.375 8.75003 28.375ZM31.8482 29.0909C31.7242 29.3908 31.6081 29.694 31.5 30C31.3489 30.2731 31.1924 30.5432 31.0308 30.8101C30.8718 31.0894 30.7132 31.3689 30.5547 31.6485C30.381 31.954 30.2071 32.2595 30.0332 32.565C29.9894 32.642 29.9456 32.719 29.9005 32.7983C29.5913 33.3412 29.2798 33.8827 28.9668 34.4234C28.924 34.4974 28.8812 34.5714 28.837 34.6477C28.6327 35.0007 28.4281 35.3535 28.2231 35.7062C28.15 35.8325 28.0769 35.9588 28.0015 36.0889C27.9376 36.1989 27.8738 36.3088 27.808 36.4221C27.6105 36.7762 27.4288 37.1362 27.25 37.5C28.3947 37.5065 29.539 37.5074 30.6836 37.5001C31.2247 37.4976 31.7631 37.507 32.3037 37.5293C32.5202 37.5327 32.7367 37.536 32.9532 37.5391C33.0945 37.5506 33.0945 37.5506 33.2387 37.5623C33.5564 37.5608 33.7223 37.5332 34 37.375C34.3506 36.9394 34.6168 36.4694 34.8782 35.9776C35.0677 35.6236 35.2718 35.2782 35.4737 34.9312C35.6337 34.6496 35.7935 34.3678 35.9532 34.086C36.1269 33.7802 36.301 33.4746 36.4751 33.169C36.5404 33.0544 36.5404 33.0544 36.607 32.9374C37.0586 32.1455 37.5168 31.3575 37.9766 30.5703C38.0491 30.4461 38.1216 30.3219 38.1964 30.194C38.7265 29.2876 38.7265 29.2876 38.9593 28.916C39.1456 28.6446 39.1456 28.6446 39.125 28.375C38.2 28.3337 37.2752 28.3053 36.3495 28.2858C36.0349 28.2776 35.7203 28.2665 35.406 28.2524C33.3719 28.0407 33.3719 28.0407 31.8482 29.0909ZM52 28.375C51.7164 28.8881 51.4328 29.4011 51.1407 29.9297C50.5584 30.9797 49.9719 32.0259 49.3588 33.0582C48.8996 33.8312 48.4469 34.6079 47.9966 35.386C47.9109 35.534 47.8251 35.6818 47.7391 35.8296C47.6186 36.0369 47.4985 36.2446 47.3784 36.4522C47.2735 36.6332 47.2735 36.6332 47.1665 36.8178C46.9871 37.1277 46.9871 37.1277 46.875 37.5C50.4225 37.5 53.97 37.5 57.625 37.5C57.625 34.4888 57.625 31.4775 57.625 28.375C55.7688 28.375 53.9125 28.375 52 28.375ZM24.3433 28.3062C23.7377 28.2567 23.1773 28.2117 22.625 28.5C21.9622 29.1468 21.5924 30.0147 21.2009 30.8403C20.8581 31.5395 20.457 32.2042 20.0625 32.875C19.9059 33.147 19.7495 33.4192 19.5933 33.6914C19.281 34.2328 18.9649 34.7717 18.645 35.3086C18.5693 35.4358 18.4936 35.5629 18.4156 35.6939C18.2717 35.9347 18.1273 36.1753 17.9824 36.4156C17.9188 36.5221 17.8552 36.6286 17.7896 36.7383C17.7334 36.8315 17.6773 36.9247 17.6194 37.0208C17.4808 37.2439 17.4808 37.2439 17.5 37.5C19.7275 37.5 21.955 37.5 24.25 37.5C24.745 36.5925 25.24 35.685 25.75 34.75C26.3516 33.7188 26.3516 33.7188 26.6519 33.2134C27.059 32.5277 27.4591 31.838 27.8583 31.1477C27.9813 30.9351 28.1046 30.7228 28.228 30.5104C28.6337 29.8083 29.0227 29.1054 29.375 28.375C29.0944 28.3734 28.8138 28.372 28.5332 28.3706C28.4456 28.3702 28.358 28.3697 28.2677 28.3692C27.7842 28.3671 27.3008 28.3675 26.8173 28.3723C26.6219 28.3741 26.4264 28.3758 26.231 28.3775C26.0862 28.3787 26.0862 28.3787 25.9386 28.38C25.4019 28.3822 24.8778 28.3606 24.3433 28.3062ZM43.9375 28.3633C43.7188 28.3643 43.5 28.3655 43.2813 28.3672C43.185 28.3637 43.0886 28.3603 42.9894 28.3567C42.5996 28.3656 42.3252 28.4224 42.05 28.7066C41.8449 29.0038 41.6717 29.3074 41.5 29.625C41.4334 29.7409 41.3669 29.8567 41.2982 29.9761C41.0804 30.357 40.8679 30.7406 40.6563 31.125C39.8267 32.6185 38.9715 34.093 38.0899 35.5562C38.0204 35.6715 37.951 35.7868 37.8795 35.9056C37.7432 36.1318 37.6066 36.3577 37.4697 36.5834C37.3779 36.7355 37.3779 36.7355 37.2842 36.8907C37.2019 37.0265 37.2019 37.0265 37.1179 37.1651C36.9898 37.3531 36.9898 37.3531 37 37.5C37.2792 37.5016 37.5583 37.503 37.8374 37.5044C37.9247 37.5049 38.012 37.5054 38.1019 37.5059C38.5843 37.508 39.0665 37.5075 39.5489 37.5025C39.7446 37.5006 39.9402 37.4988 40.1358 37.4971C40.2325 37.4962 40.3293 37.4954 40.429 37.4944C40.9778 37.4923 41.5131 37.5164 42.0596 37.5733C42.9952 37.6529 42.9952 37.6529 43.875 37.375C44.5525 36.6895 44.9173 35.7759 45.3076 34.9091C45.6177 34.2498 45.9929 33.6321 46.3672 33.0078C46.5122 32.7606 46.6569 32.5132 46.8013 32.2657C47.0332 31.8697 47.2653 31.4739 47.4975 31.0782C47.6636 30.795 47.8296 30.5118 47.9954 30.2285C48.1523 29.9606 48.3094 29.6928 48.4668 29.4251C48.5367 29.3056 48.6067 29.1861 48.6787 29.063C48.7409 28.9571 48.8031 28.8511 48.8672 28.742C49.0101 28.5278 49.0101 28.5278 49 28.375C47.8558 28.3686 46.7118 28.3666 45.5675 28.3727C45.024 28.3753 44.481 28.3717 43.9375 28.3633Z" fill="#FDA219"/>
<path d="M30.125 43C30.6302 43.2111 31.0924 43.4862 31.5625 43.7656C31.6996 43.8447 31.8367 43.9239 31.9779 44.0054C32.4032 44.2515 32.8266 44.5005 33.25 44.75C33.4994 44.8953 33.7489 45.0405 33.9985 45.1855C34.4882 45.4703 34.9772 45.7563 35.4658 46.0429C36.0283 46.372 36.5929 46.697 37.1592 47.0195C37.2364 47.0635 37.3136 47.1074 37.3931 47.1528C37.7669 47.3656 38.141 47.578 38.5153 47.7899C39.2269 48.1945 39.9349 48.6046 40.6353 49.0283C40.7653 49.1067 40.8953 49.1851 41.0292 49.2659C41.8297 49.8077 41.8297 49.8077 41.9458 50.3003C41.9456 50.4048 41.9455 50.5094 41.9453 50.6171C41.9481 50.7214 41.9508 50.8257 41.9536 50.9331C41.786 51.6087 41.2181 51.908 40.6558 52.2485C40.4143 52.388 40.1723 52.5265 39.9297 52.664C39.7328 52.7773 39.7328 52.7773 39.532 52.8928C39.178 53.0961 38.8236 53.2985 38.4688 53.5004C38.1054 53.7073 37.7424 53.915 37.3794 54.1225C36.939 54.3742 36.4985 54.6258 36.0578 54.877C34.8439 55.5693 33.6358 56.2712 32.4297 56.977C32.3196 57.0411 32.2094 57.1052 32.096 57.1713C31.8477 57.3174 31.6008 57.4661 31.355 57.6162C31.2235 57.6956 31.092 57.7751 30.9565 57.8569C30.7782 57.9662 30.7782 57.9662 30.5962 58.0777C30.0812 58.334 29.5539 58.4304 29 58.25C28.6446 57.9933 28.4092 57.7886 28.317 57.3478C28.2943 56.9939 28.292 56.6448 28.2961 56.2902C28.2952 56.1558 28.2943 56.0214 28.2934 55.8829C28.2913 55.4388 28.2937 54.9948 28.2964 54.5507C28.2963 54.242 28.296 53.9334 28.2955 53.6247C28.2951 52.9778 28.297 52.331 28.3004 51.6841C28.3046 50.8547 28.3039 50.0255 28.3016 49.1961C28.3002 48.5587 28.3014 47.9213 28.3032 47.2839C28.3039 46.9781 28.3038 46.6723 28.303 46.3665C28.3024 45.9392 28.3049 45.512 28.3083 45.0847C28.3075 44.9582 28.3067 44.8316 28.3059 44.7013C28.3133 44.1522 28.3211 43.8376 28.6135 43.3618C29.0782 42.9408 29.5181 42.8969 30.125 43ZM31 46.75C31 49.3487 31 51.9475 31 54.625C32.76 53.6649 34.5132 52.6967 36.25 51.6953C36.3822 51.6199 36.5143 51.5444 36.6505 51.4668C36.7736 51.3954 36.8966 51.324 37.0234 51.2504C37.1335 51.187 37.2435 51.1237 37.3569 51.0583C37.657 50.8776 37.657 50.8776 37.875 50.5C37.815 50.4675 37.755 50.435 37.6931 50.4015C36.2521 49.6197 34.8273 48.8136 33.4141 47.9826C32.8577 47.6555 32.3009 47.3294 31.7397 47.0107C31.651 46.9602 31.5622 46.9096 31.4708 46.8576C31.2535 46.7317 31.2535 46.7317 31 46.75Z" fill="#FBA119"/>
<path d="M33.75 61.5C34.1088 61.7243 34.3114 61.8729 34.5 62.25C34.5726 63.1362 34.5726 63.1362 34.2656 63.6172C33.8298 64.0402 33.4955 64.0487 32.9077 64.045C32.4593 63.9737 32.2664 63.7248 32 63.375C31.8237 63.0225 31.8443 62.7663 31.875 62.375C32.2888 61.508 32.8496 61.3673 33.75 61.5Z" fill="#FCA119"/>
</g>
<defs>
<clipPath id="clip0_9_124">
<rect width="64" height="64" fill="white"/>
</clipPath>
</defs>
</svg>
