<svg width="65" height="46" viewBox="0 0 65 46" fill="none" xmlns="http://www.w3.org/2000/svg">
<path d="M3.60293 19.2545C3.7034 19.254 3.80387 19.2534 3.90738 19.2529C4.24316 19.2515 4.57887 19.2528 4.91465 19.2541C5.15816 19.2537 5.40168 19.2531 5.64519 19.2523C6.3137 19.2508 6.98219 19.2515 7.6507 19.2527C8.37191 19.2535 9.09311 19.2522 9.81432 19.2512C11.2269 19.2495 12.6395 19.2499 14.0521 19.251C15.2 19.2518 16.348 19.2519 17.4959 19.2515C17.6593 19.2515 17.8226 19.2514 17.9908 19.2514C18.3226 19.2512 18.6544 19.2511 18.9862 19.251C22.0092 19.2499 25.0322 19.251 28.0553 19.253C30.8146 19.2548 33.5739 19.2546 36.3332 19.2528C39.4338 19.2508 42.5343 19.25 45.6349 19.2512C45.9655 19.2513 46.296 19.2514 46.6266 19.2515C46.8705 19.2516 46.8706 19.2516 47.1194 19.2517C48.2661 19.252 49.4128 19.2515 50.5595 19.2506C51.9568 19.2495 53.354 19.2498 54.7513 19.2518C55.4643 19.2528 56.1773 19.2532 56.8904 19.252C57.543 19.2508 58.1955 19.2515 58.8481 19.2535C59.0843 19.2539 59.3205 19.2537 59.5567 19.2527C59.8777 19.2516 60.1986 19.2528 60.5196 19.2545C60.6113 19.2536 60.7031 19.2528 60.7976 19.2519C61.8038 19.2628 62.6082 19.6088 63.3406 20.3022C64.0476 21.1015 64.1508 21.9505 64.1169 22.9965C63.9933 23.9522 63.558 24.6543 62.8283 25.27C62.0687 25.7157 61.3831 25.8572 60.5196 25.8489C60.4191 25.8494 60.3186 25.85 60.2151 25.8506C59.8793 25.8519 59.5436 25.8506 59.2079 25.8493C58.9643 25.8498 58.7208 25.8504 58.4773 25.8511C57.8088 25.8527 57.1403 25.8519 56.4718 25.8507C55.7506 25.8499 55.0294 25.8512 54.3082 25.8522C52.8956 25.8539 51.483 25.8535 50.0704 25.8524C48.9225 25.8516 47.7745 25.8515 46.6266 25.8519C46.4633 25.8519 46.2999 25.852 46.1317 25.8521C45.7999 25.8522 45.4681 25.8523 45.1363 25.8524C42.1133 25.8535 39.0903 25.8524 36.0672 25.8504C33.3079 25.8486 30.5486 25.8488 27.7893 25.8506C24.6887 25.8526 21.5882 25.8534 18.4876 25.8522C18.1571 25.8521 17.8265 25.852 17.4959 25.8519C17.252 25.8518 17.252 25.8518 17.0031 25.8517C15.8564 25.8514 14.7097 25.8519 13.563 25.8528C12.1657 25.8539 10.7685 25.8536 9.37123 25.8516C8.6582 25.8506 7.94518 25.8502 7.23215 25.8515C6.57955 25.8526 5.92697 25.852 5.27437 25.85C5.03818 25.8495 4.80198 25.8498 4.56579 25.8507C4.24481 25.8518 3.92391 25.8506 3.60293 25.8489C3.46532 25.8502 3.46532 25.8502 3.32492 25.8516C2.31867 25.8406 1.51428 25.4946 0.781958 24.8012C0.0749211 24.0019 -0.0282625 23.153 0.00559098 22.1069C0.129251 21.1512 0.56453 20.4491 1.29417 19.8334C2.05379 19.3877 2.73941 19.2463 3.60293 19.2545Z" fill="#FFA31A"/>
<path d="M20.5522 0.00409136C20.7277 0.00365873 20.9032 0.00306278 21.0786 0.00231864C21.5585 0.000758881 22.0383 0.00152436 22.5182 0.00268848C23.0366 0.00353889 23.555 0.00222634 24.0734 0.00119601C25.0881 -0.000469731 26.1027 -0.000112082 27.1174 0.000975745C27.9422 0.00182333 28.7669 0.0019372 29.5917 0.00152931C29.7092 0.00147185 29.8267 0.00141439 29.9477 0.00135519C30.1864 0.00123529 30.425 0.00111371 30.6637 0.000990464C32.9006 -7.83534e-05 35.1375 0.00114984 37.3744 0.0031656C39.2929 0.00484096 41.2115 0.00454994 43.13 0.00282107C45.359 0.000813349 47.588 2.4639e-05 49.817 0.00117567C50.0548 0.00129512 50.2926 0.00141301 50.5304 0.00152931C50.7058 0.00161609 50.7058 0.00161609 50.8849 0.00170463C51.7085 0.00202814 52.5321 0.00148247 53.3556 0.000599482C54.3596 -0.000453242 55.3636 -0.00016559 56.3675 0.00182976C56.8796 0.00281396 57.3916 0.0032035 57.9036 0.00196133C58.3727 0.000840529 58.8418 0.00146355 59.3109 0.00345291C59.5602 0.00406748 59.8094 0.002849 60.0587 0.00155645C61.2762 0.00951523 62.4047 0.170135 63.311 1.05171C64.0887 2.08122 64.1506 3.04291 64.061 4.30171C63.8548 5.18801 63.1527 5.78688 62.436 6.30171C61.9606 6.52977 61.5828 6.58316 61.0576 6.58387C60.9054 6.58467 60.7533 6.58548 60.5965 6.58631C60.4281 6.58594 60.2596 6.58555 60.0912 6.58514C59.9119 6.58561 59.7327 6.58618 59.5534 6.58685C59.0608 6.58838 58.5682 6.58835 58.0755 6.58806C57.5442 6.58801 57.013 6.58938 56.4817 6.59057C55.4408 6.59265 54.3999 6.59333 53.3589 6.59347C52.5129 6.59359 51.6668 6.59411 50.8208 6.5949C48.4223 6.5971 46.0239 6.59825 43.6255 6.59807C43.4962 6.59806 43.3668 6.59805 43.2336 6.59804C43.1041 6.59803 42.9747 6.59802 42.8413 6.598C40.7428 6.5979 38.6443 6.6003 36.5458 6.60382C34.3914 6.60741 32.237 6.60914 30.0826 6.60892C28.873 6.60884 27.6633 6.60953 26.4537 6.61222C25.4238 6.61449 24.3939 6.61504 23.364 6.61334C22.8385 6.61252 22.3131 6.61251 21.7877 6.61468C21.3064 6.61664 20.8252 6.61629 20.344 6.61411C20.1701 6.61372 19.9963 6.61418 19.8224 6.61557C18.6926 6.62402 17.951 6.53764 17.0352 5.84224C16.2666 5.05872 16.0415 4.48319 15.9985 3.38765C16.022 2.39996 16.2097 1.66343 16.9106 0.947218C18.0017 0.0525333 19.1877 -0.00298408 20.5522 0.00409136Z" fill="#FFA31A"/>
<path d="M32.4771 38.4882C32.6651 38.487 32.6651 38.487 32.8569 38.4859C33.2743 38.4839 33.6916 38.4854 34.1091 38.487C34.4093 38.4863 34.7096 38.4854 35.0099 38.4844C35.7392 38.4823 36.4686 38.4826 37.1979 38.4841C37.7909 38.4852 38.3838 38.4853 38.9768 38.4848C39.1036 38.4847 39.1036 38.4847 39.233 38.4846C39.4048 38.4844 39.5766 38.4842 39.7484 38.4841C41.3573 38.4827 42.9662 38.4843 44.5751 38.487C45.9544 38.4892 47.3336 38.4888 48.7129 38.4865C50.3164 38.4838 51.9199 38.4828 53.5235 38.4843C53.6946 38.4845 53.8657 38.4846 54.0368 38.4848C54.1631 38.4849 54.1631 38.4849 54.2919 38.485C54.8839 38.4855 55.4759 38.4847 56.068 38.4836C56.8653 38.4821 57.6626 38.4831 58.4599 38.486C58.7523 38.4867 59.0448 38.4865 59.3373 38.4854C59.7368 38.484 60.1361 38.4857 60.5356 38.4882C60.7088 38.4865 60.7088 38.4865 60.8856 38.4848C61.8366 38.4963 62.611 38.7761 63.2875 39.4658C64.0807 40.3296 64.1299 41.0729 64.1049 42.226C64.0163 43.1347 63.6317 43.7166 62.9359 44.3017C61.9946 44.9771 61.2591 45.0704 60.1195 45.0693C59.9989 45.0696 59.8783 45.07 59.754 45.0704C59.3494 45.0715 58.9449 45.0717 58.5403 45.0719C58.2504 45.0724 57.9605 45.0731 57.6705 45.0737C56.8826 45.0754 56.0946 45.0762 55.3066 45.0767C54.8142 45.0771 54.3218 45.0776 53.8294 45.0782C52.4651 45.0797 51.1008 45.081 49.7365 45.0814C49.6492 45.0814 49.562 45.0815 49.4721 45.0815C49.3846 45.0815 49.2971 45.0815 49.207 45.0816C49.0298 45.0816 48.8525 45.0817 48.6753 45.0817C48.5434 45.0818 48.5434 45.0818 48.4089 45.0818C46.9851 45.0823 45.5613 45.0845 44.1376 45.0874C42.6745 45.0904 41.2113 45.0919 39.7482 45.0921C38.9273 45.0922 38.1064 45.0929 37.2854 45.0952C36.513 45.0972 35.7405 45.0975 34.968 45.0964C34.6849 45.0963 34.4019 45.0969 34.1188 45.0981C33.7314 45.0997 33.3441 45.0989 32.9567 45.0976C32.8455 45.0987 32.7343 45.0997 32.6198 45.1007C31.4131 45.0913 30.4262 44.813 29.5507 43.9638C28.9112 43.198 28.7276 42.3596 28.7719 41.3764C28.8858 40.4292 29.3126 39.6554 30.0609 39.0517C30.8668 38.5945 31.561 38.4793 32.4771 38.4882Z" fill="#FFA31A"/>
</svg>
