<svg width="32" height="32" viewBox="0 0 32 32" fill="none" xmlns="http://www.w3.org/2000/svg">
<g clip-path="url(#clip0_13_145)">
<path d="M12.6211 0.140627C13.0446 0.499912 13.0446 0.499912 13.0774 0.84302C13.079 0.901269 13.0805 0.959519 13.0821 1.01953C13.0856 1.10618 13.0856 1.10618 13.0892 1.19458C13.0357 1.55683 12.7655 1.81108 12.5313 2.07813C12.1196 2.56103 11.7761 3.08929 11.4375 3.625C11.401 3.68278 11.401 3.68278 11.3638 3.74173C9.70008 6.41373 9.29223 9.80562 9.97451 12.8446C10.3456 14.3919 10.9893 15.9038 11.9375 17.1875C11.9848 17.2524 12.032 17.3172 12.0806 17.384C12.4574 17.8925 12.8759 18.3552 13.3125 18.8125C13.3502 18.8534 13.3878 18.8944 13.4266 18.9365C15.3585 20.9804 18.4922 22.2803 21.2708 22.3827C23.5962 22.4338 25.8133 22.0603 27.875 20.9375C27.9313 20.9074 27.9313 20.9074 27.9887 20.8767C28.7804 20.4517 29.4973 19.9422 30.1712 19.3487C30.5276 19.0369 30.742 18.9748 31.211 18.9841C31.5363 19.0156 31.7288 19.199 31.9375 19.4375C32.1156 19.9717 31.9745 20.4987 31.793 21.0117C31.7708 21.0761 31.7486 21.1404 31.7257 21.2067C31.0052 23.236 29.8983 25.0776 28.4456 26.6655C28.3327 26.7903 28.2248 26.9175 28.1172 27.0469C26.8933 28.4461 25.266 29.5305 23.625 30.375C23.5823 30.397 23.5395 30.4191 23.4954 30.4418C22.5317 30.931 21.5162 31.2994 20.4727 31.5781C20.4215 31.592 20.3704 31.6059 20.3176 31.6201C20.1293 31.6681 19.9402 31.7095 19.75 31.75C19.7039 31.7603 19.6578 31.7706 19.6103 31.7812C18.5973 32.0026 17.597 32.0412 16.5645 32.036C16.3893 32.0352 16.2141 32.0356 16.0388 32.0373C12.0243 32.0764 8.15984 30.5301 5.23027 27.781C5.08737 27.6481 4.94193 27.5206 4.79302 27.3945C4.58914 27.2175 4.41313 27.0267 4.23906 26.8206C4.16197 26.7306 4.0826 26.6425 4.00127 26.5564C1.55421 23.9578 0.0162692 20.1242 -0.0148443 16.5569C-0.0154564 16.4985 -0.0160685 16.4401 -0.0166991 16.38C-0.0273076 15.1062 -0.0171773 13.8759 0.250048 12.625C0.26311 12.5605 0.276172 12.496 0.28963 12.4295C0.790066 9.99333 1.84767 7.61102 3.43755 5.6875C3.47835 5.63782 3.47835 5.63782 3.51998 5.58713C3.71806 5.34657 3.92006 5.1097 4.12505 4.875C4.1525 4.84351 4.17995 4.81202 4.20824 4.77957C6.03014 2.70444 8.43385 1.17808 11.0352 0.277346C11.0961 0.255664 11.157 0.233981 11.2198 0.211642C11.672 0.0611635 12.1667 -0.0527481 12.6211 0.140627Z" fill="#FFA31A"/>
<path d="M20.6328 7.14843C21.0721 7.40423 21.2458 7.90845 21.4082 8.36694C21.7998 9.40494 22.2294 9.9466 23.2502 10.4262C23.56 10.5658 23.8714 10.7031 24.1889 10.8243C24.5113 10.9529 24.6765 11.0881 24.875 11.375C24.99 11.7202 24.9944 12.0619 24.8437 12.3945C24.5634 12.6959 24.2462 12.859 23.8633 12.9972C22.8262 13.3727 22.1443 13.7648 21.6415 14.7788C21.473 15.1395 21.3122 15.5052 21.1724 15.878C21.0239 16.2571 20.8331 16.4388 20.4804 16.6484C20.1439 16.7267 19.8507 16.6744 19.5429 16.5234C19.2299 16.2468 19.0845 15.8576 18.9236 15.4792C18.4184 14.2509 18.4184 14.2509 17.3989 13.4776C17.2984 13.44 17.1973 13.404 17.0957 13.3696C16.8054 13.2649 16.5334 13.1223 16.2578 12.9844C16.2054 12.96 16.153 12.9356 16.099 12.9105C15.7755 12.7553 15.5796 12.6094 15.375 12.3125C15.2608 11.9699 15.2724 11.6699 15.3984 11.332C15.6686 10.9241 16.2043 10.7371 16.6367 10.55C17.79 10.0681 17.79 10.0681 18.5119 9.09405C18.5513 8.99238 18.5893 8.89017 18.626 8.7875C18.7408 8.48407 18.8913 8.19856 19.039 7.91015C19.0653 7.85427 19.0916 7.79839 19.1187 7.74081C19.28 7.41731 19.4177 7.24375 19.753 7.09922C20.0641 7.00554 20.3322 7.02844 20.6328 7.14843Z" fill="#FFA31A"/>
<path d="M28.2695 1.44922C28.4892 1.59739 28.6317 1.7633 28.75 2C28.7553 2.09966 28.7567 2.19953 28.7561 2.29932C28.7559 2.35813 28.7557 2.41695 28.7555 2.47754C28.7547 2.56987 28.7547 2.56987 28.7539 2.66407C28.7536 2.7261 28.7533 2.78814 28.7531 2.85205C28.7523 3.00554 28.7513 3.15902 28.75 3.3125C28.7878 3.31119 28.8256 3.30988 28.8645 3.30854C29.0373 3.30331 29.21 3.30008 29.3828 3.29688C29.4423 3.29478 29.5017 3.29269 29.563 3.29053C29.9403 3.28529 30.1496 3.31253 30.4375 3.5625C30.6707 3.82791 30.7102 4.07208 30.7046 4.41577C30.6765 4.65653 30.5912 4.81574 30.4375 5C30.0728 5.26545 29.7906 5.28221 29.3477 5.26563C29.2612 5.26394 29.2612 5.26394 29.173 5.26221C29.0319 5.25929 28.891 5.25519 28.75 5.25C28.7516 5.28747 28.7533 5.32494 28.755 5.36354C28.7615 5.53532 28.7655 5.70706 28.7695 5.87891C28.7721 5.93784 28.7748 5.99678 28.7775 6.0575C28.7848 6.47856 28.7241 6.68725 28.4375 7C28.1406 7.17043 27.9026 7.22926 27.5625 7.1875C27.2275 7.08171 27.032 6.95216 26.8609 6.63304C26.7677 6.37694 26.7868 6.11656 26.7969 5.84766C26.798 5.79001 26.7991 5.73237 26.8003 5.67298C26.8032 5.53192 26.8073 5.391 26.8125 5.25C26.7769 5.25131 26.7413 5.25262 26.7047 5.25397C26.5414 5.25921 26.3782 5.26243 26.2148 5.26563C26.1309 5.26877 26.1309 5.26877 26.0453 5.27198C25.6609 5.27761 25.4363 5.23065 25.125 5C24.9487 4.78573 24.8826 4.55312 24.8438 4.28125C24.8952 3.92103 25.0074 3.66836 25.2793 3.42359C25.5849 3.26975 25.8431 3.28502 26.1797 3.29688C26.2406 3.29801 26.3015 3.29913 26.3643 3.3003C26.5137 3.30323 26.6631 3.30733 26.8125 3.3125C26.8112 3.27693 26.8099 3.24135 26.8085 3.2047C26.8033 3.04143 26.8001 2.87817 26.7969 2.71485C26.7948 2.65889 26.7927 2.60294 26.7905 2.54529C26.7849 2.1603 26.8345 1.93828 27.0625 1.625C27.4287 1.31922 27.8268 1.29052 28.2695 1.44922Z" fill="#FFA31A"/>
</g>
<defs>
<clipPath id="clip0_13_145">
<rect width="32" height="32" fill="white"/>
</clipPath>
</defs>
</svg>
